<?xml version="1.0" encoding="UTF-8"?>
<svg xmlns="http://www.w3.org/2000/svg" xmlns:xlink="http://www.w3.org/1999/xlink" xmlns:i="http://ns.adobe.com/AdobeIllustrator/10.0/" version="1.1" viewBox="0 0 1079.5 229.5">
  <defs>
    <style>
      .st0 {
        fill: none;
      }

      .st1, .st2 {
        mix-blend-mode: hard-light;
      }

      .st1, .st3, .st4 {
        opacity: .3;
      }

      .st5 {
        fill: #098337;
      }

      .st6 {
        fill: #af126c;
      }

      .st2 {
        stroke: #047893;
        stroke-width: 2px;
      }

      .st2, .st7 {
        stroke-linecap: round;
        stroke-linejoin: round;
      }

      .st2, .st7, .st8 {
        fill: #00b3dd;
      }

      .st9 {
        isolation: isolate;
      }

      .st3 {
        mix-blend-mode: luminosity;
      }

      .st10 {
        clip-path: url(#clippath-1);
      }

      .st11 {
        clip-path: url(#clippath-3);
      }

      .st12 {
        clip-path: url(#clippath-2);
      }

      .st7 {
        stroke: #006bb4;
      }

      .st13 {
        fill: #dd9b03;
      }

      .st14 {
        fill: #ffd200;
      }

      .st15 {
        mix-blend-mode: overlay;
      }

      .st16 {
        fill: #2f6d2e;
      }

      .st17 {
        opacity: .8;
      }

      .st18 {
        fill: #6ab42d;
      }

      .st19 {
        fill: #935c14;
      }

      .st20 {
        fill: #e8348b;
      }

      .st21 {
        clip-path: url(#clippath);
      }
    </style>
    <clipPath id="clippath">
      <path class="st0" d="M43.7,165.5c.3,11.8,11.8,21.2,23.3,18.5,9.1-1.8,15.4-10.4,14.6-19.6,0-1.1,0-4.1-.1-5.2-.4-21.8-1.3-108.3-1.7-130.6-.3-13.4,10.4-24.5,23.8-24.7,13.4-.3,24.5,10.4,24.7,23.8-.5,26-1.3,112.1-1.9,137.6-.2,38.4-36,68-73.6,60.3-28.3-5.3-49.7-31.5-49.1-60.2,1.2-26.3,38.7-26.2,40,0h0Z"></path>
    </clipPath>
    <clipPath id="clippath-1">
      <rect class="st0" x="-1.3" y="-1" width="134.6" height="232.9"></rect>
    </clipPath>
    <clipPath id="clippath-2">
      <rect class="st0" x="-1.3" y="-1" width="134.6" height="232.9"></rect>
    </clipPath>
    <clipPath id="clippath-3">
      <path class="st0" d="M257.4,100.5c4.6-7.6,7.2-16.3,7.2-25.7,0-28.4-24.1-51.5-53.7-51.5h-44.7c-11.8,0-21.3,9.5-21.3,21.3v134.6c0,11.8,9.5,21.3,21.3,21.3h46.4c35.3,0,64-26.2,64-58.4s-7.3-31-19.2-41.7ZM210.9,65.9c.2,0,.4,0,.6,0h0c.2,0,.4,0,.5,0,5.8,0,10.6,4.7,10.6,10.6s-4.7,10.6-10.6,10.6-.8,0-1.2,0h0c0,0-11.5,0-11.5,0h-11.9v-21.1h23.4ZM215.2,115.4c11.7,0,21.3,9.5,21.3,21.3s-9.5,21.3-21.3,21.3-.9,0-1.3,0h0c-.4,0-.9,0-1.4,0h-25.1v-42.5h27.7Z"></path>
    </clipPath>
  </defs>
  <g class="st9">
    <g id="Layer_1">
      <g>
        <g>
          <g>
            <path class="st20" d="M354.5,201.7c-24.2,0-46.5-13.2-58.1-34.5-9.3-17-10.7-37.3-3.7-55.7,7-18.5,21.7-32.9,40.1-39.5,7.3-2.7,14.9-4,22.7-4,31.4,0,59.2,22,66.1,52.4h0c0,0,0,.2,0,.2,2.7,11,2.1,19.4-1.8,24.3-2.6,3.3-6.5,5-11.6,5h-77.1c4.6,8.6,12.8,14,22.7,15,1.6.1,3.2.2,4.8.2,9.1,0,17.4-1.8,24.7-5.4,1.3-.6,2.6-1.3,4.1-2.1.9-.5,1.9-1,3-1.5,2.2-1.1,4.6-1.7,7.1-1.7,6,0,11.4,3.3,14.1,8.7,3.3,6.6,1.7,14.5-4,19.2-2.3,1.9-4.6,3.7-7.4,5.7-10.6,7.5-24.2,12.3-38.2,13.4-2.5.3-5.1.4-7.7.4ZM377.2,120.4c-5-7-13.5-11.3-22.2-11.3s-11.8,2-16.6,5.8c-2,1.6-3.8,3.5-5.3,5.5h44.1Z"></path>
            <path class="st6" d="M355.5,68.4c30.4,0,58.6,21,65.6,52.1,0,0,0,0,0,0,4.8,19.8-1.4,28.6-12.9,28.6h-77.9c4.2,8.4,12.4,14.9,23.5,16,1.6.1,3.3.2,4.9.2,8.6,0,17.1-1.6,24.9-5.4,2.1-1,4.2-2.1,7.1-3.6,2.2-1.1,4.5-1.6,6.8-1.6,5.6,0,11,3.1,13.6,8.4,3.2,6.5,1.5,14.1-3.8,18.6-2.1,1.8-4.4,3.5-7.3,5.7-11,7.8-24.6,12.3-37.9,13.3-2.6.3-5.1.4-7.6.4-23.8,0-46-13-57.7-34.3-19.5-35.6-2.1-80.9,36.2-94.5,7.4-2.7,15-4,22.5-4M332.1,120.9h46c-5.2-7.8-14.1-12.3-23.2-12.3-5.8,0-11.8,1.9-16.9,5.9-2.4,1.9-4.4,4.1-5.9,6.4M355.5,67.4c-7.8,0-15.5,1.4-22.9,4-18.6,6.6-33.3,21.1-40.4,39.8-7,18.5-5.7,39,3.7,56.2,11.7,21.5,34.2,34.8,58.5,34.8s5.2-.2,7.8-.5c14.1-1.1,27.7-5.9,38.4-13.5,2.8-2,5.1-3.8,7.4-5.7,5.8-4.9,7.5-13,4.1-19.8-2.8-5.5-8.3-9-14.5-9-2.5,0-5,.6-7.3,1.7-1.1.5-2.1,1.1-3,1.5-1.5.8-2.8,1.5-4.1,2-7.3,3.5-15.5,5.3-24.5,5.3s-3.2,0-4.8-.2c-9.4-.9-17.3-5.9-21.9-14h76.3c5.2,0,9.3-1.8,11.9-5.2,4-5.1,4.6-13.4,1.9-24.7,0,0,0-.1,0-.2-6.9-30.6-34.9-52.8-66.6-52.8h0ZM334.1,119.9c1.3-1.7,2.9-3.2,4.6-4.6,4.7-3.7,10.3-5.7,16.3-5.7,8.3,0,16.2,3.9,21.2,10.3h-42.1Z"></path>
          </g>
          <g>
            <path class="st18" d="M548.7,203.8c-6.3,0-12.1-2.8-16.1-7.8-9.7,5.1-20.6,7.8-31.5,7.8-37.5,0-68-30.5-68-68s30.5-68,68-68,21.8,2.7,31.5,7.8c3.9-4.9,9.8-7.8,16.1-7.8,11.4,0,20.6,9.2,20.6,20.6v94.7c0,11.4-9.2,20.6-20.6,20.6ZM501.1,109.1c-14.7,0-26.7,12-26.7,26.7s12,26.7,26.7,26.7,26.7-12,26.7-26.7-12-26.7-26.7-26.7Z"></path>
            <path class="st5" d="M548.7,68.4c11.1,0,20.1,9,20.1,20.1v94.7c0,11.1-9,20.1-20.1,20.1s-12.3-3.1-16-7.9c-9.4,5-20.2,7.9-31.6,7.9-37.2,0-67.5-30.3-67.5-67.5s30.3-67.5,67.5-67.5,22.2,2.9,31.6,7.9c3.7-4.8,9.4-7.9,16-7.9M501.1,163.1c15,0,27.2-12.2,27.2-27.2s-12.2-27.2-27.2-27.2-27.2,12.2-27.2,27.2,12.2,27.2,27.2,27.2M548.7,67.4c-6.3,0-12.2,2.8-16.2,7.6-9.7-5-20.5-7.6-31.4-7.6-37.8,0-68.5,30.7-68.5,68.5s30.7,68.5,68.5,68.5,21.7-2.6,31.4-7.6c4,4.9,9.9,7.6,16.2,7.6,11.6,0,21.1-9.5,21.1-21.1v-94.7c0-11.6-9.5-21.1-21.1-21.1h0ZM501.1,162.1c-14.5,0-26.2-11.8-26.2-26.2s11.8-26.2,26.2-26.2,26.2,11.8,26.2,26.2-11.8,26.2-26.2,26.2h0Z"></path>
          </g>
          <g>
            <path class="st20" d="M696.6,203.8c-11.4,0-20.6-9.2-20.6-20.6v-47.4c0-14.7-12-26.7-26.7-26.7s-26.7,12-26.7,26.7v47.4c0,11.4-9.2,20.6-20.6,20.6s-20.6-9.2-20.6-20.6v-94.7c0-11.4,9.2-20.6,20.6-20.6s12.1,2.8,16,7.7c9.6-5,20.5-7.7,31.3-7.7,37.5,0,68,30.5,68,68v47.4c0,11.4-9.2,20.6-20.6,20.6Z"></path>
            <path class="st6" d="M649.2,68.4c37.2,0,67.5,30.3,67.5,67.5v47.4c0,11.1-9,20.1-20.1,20.1s-20.1-9-20.1-20.1v-47.4c0-15-12.2-27.2-27.2-27.2s-27.2,12.2-27.2,27.2v47.4c0,11.1-9,20.1-20.1,20.1s-20.1-9-20.1-20.1v-94.7c0-11.1,9-20.1,20.1-20.1s12.2,3.1,15.9,7.8c9.4-5,20.1-7.8,31.5-7.8M649.2,67.4c-10.8,0-21.6,2.6-31.2,7.5-4-4.8-9.9-7.5-16.2-7.5-11.6,0-21.1,9.5-21.1,21.1v94.7c0,11.6,9.5,21.1,21.1,21.1s21.1-9.5,21.1-21.1v-47.4c0-14.5,11.8-26.2,26.2-26.2s26.2,11.8,26.2,26.2v47.4c0,11.6,9.5,21.1,21.1,21.1s21.1-9.5,21.1-21.1v-47.4c0-37.8-30.7-68.5-68.5-68.5h0Z"></path>
          </g>
          <image width="808" height="803" transform="translate(258.9 38.5) scale(.2)"></image>
          <image width="814" height="812" transform="translate(403.6 38.5) scale(.2)"></image>
          <image width="584" height="732" transform="translate(451.3 38.5) scale(.2)"></image>
          <image width="813" height="812" transform="translate(551.7 38.5) scale(.2)"></image>
          <g class="st4">
            <image width="508" height="370" transform="translate(584.1 38.2) scale(.2)"></image>
          </g>
          <g class="st4">
            <image width="392" height="757" transform="translate(551.7 38.5) scale(.2)"></image>
          </g>
          <g class="st4">
            <image width="363" height="570" transform="translate(641.2 80.2) scale(.2)"></image>
          </g>
          <path class="st2" d="M43.7,165.5c.3,11.8,11.8,21.2,23.3,18.5,9.1-1.8,15.4-10.4,14.6-19.6,0-1.1,0-4.1-.1-5.2-.4-21.8-1.3-108.3-1.7-130.6-.3-13.4,10.4-24.5,23.8-24.7,13.4-.3,24.5,10.4,24.7,23.8-.5,26-1.3,112.1-1.9,137.6-.2,38.4-36,68-73.6,60.3-28.3-5.3-49.7-31.5-49.1-60.2,1.2-26.3,38.7-26.2,40,0h0Z"></path>
          <g>
            <g class="st21">
              <g class="st10">
                <g class="st12">
                  <image width="281" height="486" transform="translate(-1.5 -1.1) scale(.5)"></image>
                </g>
              </g>
            </g>
            <g class="st3">
              <image width="779" height="1188" transform="translate(-27.5 -27.1) scale(.2)"></image>
            </g>
            <g class="st15">
              <image width="797" height="1076" transform="translate(-27 -23.7) scale(.2)"></image>
            </g>
          </g>
          <g>
            <g>
              <path class="st14" d="M166.1,201c-12,0-21.8-9.8-21.8-21.8V44.6c0-12,9.8-21.8,21.8-21.8h44.7c29.9,0,54.2,23.3,54.2,52s-2.4,17.8-7,25.6c12.3,11.2,19,26,19,41.7,0,32.5-29,58.9-64.5,58.9h-46.4ZM213.9,157.4c.4,0,.8,0,1.3,0,11.4,0,20.8-9.3,20.8-20.8s-9.3-20.8-20.8-20.8h-27.2v41.5h24.6c.5,0,.9,0,1.3,0,0,0,0,0,0,0h0ZM210.9,86.5c.4,0,.7,0,1.1,0,5.6,0,10.1-4.5,10.1-10.1s-4.5-10.1-10.1-10.1h0c-.2,0-.3,0-.5,0-.3,0-.5,0-.6,0h-23v20.1h22.7c0,0,.1,0,.2,0s0,0,0,0Z"></path>
              <path class="st19" d="M210.9,23.3c29.6,0,53.7,23.1,53.7,51.5s-2.6,18.1-7.2,25.7c11.8,10.6,19.2,25.4,19.2,41.7,0,32.2-28.7,58.4-64,58.4h-46.4c-11.8,0-21.3-9.5-21.3-21.3V44.6c0-11.8,9.5-21.3,21.3-21.3h44.7M211.5,65.9c-.2,0-.4,0-.6,0h-23.4v21.1h23.4c.4,0,.8,0,1.2,0,5.8,0,10.6-4.7,10.6-10.6s-4.7-10.6-10.6-10.6-.4,0-.5,0h0M187.4,157.9h25.1c.5,0,.9,0,1.4,0h0c.4,0,.8,0,1.3,0,11.7,0,21.3-9.5,21.3-21.3s-9.5-21.3-21.3-21.3h-27.7v42.5M210.9,22.3h-44.7c-12.3,0-22.3,10-22.3,22.3v134.6c0,12.3,10,22.3,22.3,22.3h46.4c35.9,0,65-26.7,65-59.4s-6.7-30.6-18.9-41.8c4.5-7.8,6.9-16.6,6.9-25.5,0-28.9-24.5-52.5-54.7-52.5h0ZM211.5,66.9h0s0,0,0,0c.1,0,.3,0,.4,0s0,0,0,0c5.3,0,9.6,4.3,9.6,9.6s-4.3,9.6-9.6,9.6-.7,0-1.1,0c0,0,0,0-.1,0-.1,0-.3,0-.4,0h-22.1v-19.1h22.5c.2,0,.3,0,.5,0,0,0,0,0,0,0h0ZM188.4,116.4h26.7c11.2,0,20.3,9.1,20.3,20.3s-9.1,20.3-20.3,20.3-.8,0-1.2,0c0,0,0,0,0,0s0,0,0,0c-.4,0-.9,0-1.3,0h-24.1v-40.5h0Z"></path>
            </g>
            <g class="st11">
              <g>
                <path class="st13" d="M257.4,100.5c4.6-7.6,7.2-16.3,7.2-25.7,0-28.4-24.1-51.5-53.7-51.5h-44.7c-11.8,0-21.3,9.5-21.3,21.3v134.6c0,11.8,9.5,21.3,21.3,21.3h46.4c35.3,0,64-26.2,64-58.4s-7.3-31-19.2-41.7ZM210.9,65.9c.2,0,.4,0,.6,0h0c.2,0,.4,0,.5,0,5.8,0,10.6,4.7,10.6,10.6s-4.7,10.6-10.6,10.6-.8,0-1.2,0h0c0,0-11.5,0-11.5,0h-11.9v-21.1h23.4ZM215.2,115.4c11.7,0,21.3,9.5,21.3,21.3s-9.5,21.3-21.3,21.3-.9,0-1.3,0h0c-.4,0-.9,0-1.4,0h-25.1v-42.5h27.7Z"></path>
                <image width="799" height="988" transform="translate(114.9 -6.7) scale(.2)"></image>
              </g>
            </g>
            <g class="st17">
              <image width="422" height="921" transform="translate(118 -5) scale(.2)"></image>
            </g>
            <g class="st17">
              <image width="432" height="424" transform="translate(167.4 34.6) scale(.2)"></image>
            </g>
            <g class="st17">
              <image width="432" height="423" transform="translate(179.7 104) scale(.2)"></image>
            </g>
          </g>
          <image width="632" height="683" transform="translate(258.9 40.4) scale(.2)"></image>
          <image width="632" height="684" transform="translate(405.3 40.1) scale(.2)"></image>
          <image width="443" height="375" transform="translate(325.8 125.3) scale(.2)"></image>
        </g>
        <g>
          <path class="st8" d="M1039.5,23.8c.5.5.8,1.2.8,2s-.3,1.4-.8,2c-.5.5-1.2.8-1.9.8h-6.6v24.1c0,.9-.3,1.7-.9,2.3-.6.7-1.3,1-2.2,1s-1.6-.3-2.2-1c-.6-.7-.9-1.4-.9-2.3v-24.1h-6.6c-.7,0-1.4-.3-2-.8-.6-.5-.8-1.2-.8-1.9s.3-1.4.8-2c.6-.5,1.2-.8,2-.8h19.4c.7,0,1.4.3,1.9.8Z"></path>
          <path class="st20" d="M1078.6,23.6c.6.5.9,1.2.9,2.2v26.7c0,.9-.3,1.6-1,2.3-.6.6-1.4,1-2.3,1s-1.6-.3-2.2-1c-.6-.6-.9-1.4-.9-2.3v-15.6l-8.3,15.7c-.3.6-.7,1-1.2,1.3-.5.3-1,.5-1.6.5s-1-.2-1.5-.5c-.5-.3-.9-.7-1.2-1.3l-8.4-15.7v15.6c0,.9-.3,1.6-.9,2.3-.6.6-1.3,1-2.2,1s-1.7-.3-2.3-1c-.6-.6-1-1.4-1-2.3v-26.7c0-.9.3-1.7.9-2.2.6-.5,1.2-.8,2-.8s1.2.2,1.8.6c.6.4,1,.9,1.4,1.5l11.4,20.5,11.4-20.5c.3-.6.8-1.1,1.4-1.5.6-.4,1.2-.6,1.8-.6s1.5.3,2,.8Z"></path>
        </g>
        <g>
          <g>
            <path class="st7" d="M820.3,41.5c0,10.2-8.4,18.4-18.4,18.4h-31.7v122c0,12-9.7,22-20.7,22s-21.2-10-21.2-22V59.9h-31.4c-10,0-18.7-8.2-18.7-18.4s8.7-18.7,18.7-18.7h105.1c10,0,18.4,8.2,18.4,18.7Z"></path>
            <g class="st15">
              <image width="851" height="1014" transform="translate(647.2 -8.3) scale(.2)"></image>
            </g>
          </g>
          <g class="st1">
            <image width="367" height="404" transform="translate(648.1 -5.9) scale(.2)"></image>
          </g>
          <g class="st4">
            <image width="346" height="829" transform="translate(697.6 21.9) scale(.2)"></image>
          </g>
        </g>
        <g>
          <g>
            <path class="st18" d="M915.8,205.6c-9.4,0-16.4-5.4-20.7-15.9l-60.3-134.5c-1.3-3-2.9-7.7-2.9-12.5,0-10.7,9.4-19.4,21-19.4s16.9,5.2,20.7,13.8l42.2,100.4,42.5-100.4c3.5-8.5,11.4-13.9,20.7-13.9s21,8.7,21,19.4-1.6,9.4-2.9,12.5l-60.3,134.5c-4.6,10.7-11.4,15.9-20.9,15.9Z"></path>
            <path class="st16" d="M978.9,23.9c11.5,0,20.5,8.7,20.5,18.9s-1.3,8.7-2.8,12.3l-60.3,134.5c-4.6,10.7-11.2,15.6-20.5,15.6s-15.9-4.9-20.2-15.6l-60.3-134.5c-1.5-3.6-2.8-7.9-2.8-12.3,0-10.2,8.9-18.9,20.5-18.9s16.6,5.4,20.2,13.5l42.7,101.5,43-101.5c3.3-8.2,11-13.5,20.2-13.5M978.9,22.9c-9.5,0-17.6,5.4-21.1,14.2l-42,99.3-41.8-99.3c-3.9-8.9-11.8-14.2-21.1-14.2s-21.5,8.9-21.5,19.9,1.6,9.6,2.9,12.7l60.3,134.5c4.3,10.7,11.4,16.2,21.1,16.2s16.7-5.3,21.4-16.2l60.3-134.5c1.3-3.1,2.9-7.8,2.9-12.7,0-11-9.6-19.9-21.5-19.9h0Z"></path>
          </g>
          <image width="955" height="1014" transform="translate(801.3 -7.1) scale(.2)"></image>
          <g class="st4">
            <image width="561" height="947" transform="translate(801.3 -5.9) scale(.2)"></image>
          </g>
        </g>
      </g>
    </g>
  </g>
  <metadata></metadata>
</svg>
